<svg width="249" height="227" viewBox="0 0 249 227" fill="none" xmlns="http://www.w3.org/2000/svg">
<path d="M156.342 48.5693H155.441V129.127H156.342V48.5693Z" fill="#A5A5A5"/>
<path d="M181.725 69.7731L155.97 124.396L156.798 124.721L182.553 70.0976L181.725 69.7731Z" fill="#A5A5A5"/>
<path d="M124.69 63.368L123.879 63.7266L155.973 124.062L156.784 123.704L124.69 63.368Z" fill="#A5A5A5"/>
<path d="M126.436 68.3049C133.974 65.4301 136.787 55.9102 132.717 47.0416C128.648 38.173 119.238 33.314 111.7 36.1888C104.161 39.0636 101.349 48.5835 105.418 57.4521C109.488 66.3207 118.898 71.1796 126.436 68.3049Z" fill="#AD99FF"/>
<path d="M203.921 65.993C209.088 57.6128 207.502 47.8604 200.379 44.2102C193.256 40.5601 183.293 44.3945 178.126 52.7746C172.959 61.1548 174.545 70.9073 181.668 74.5574C188.791 78.2076 198.754 74.3731 203.921 65.993Z" fill="#AD99FF"/>
<path d="M136.578 53.7203L135.707 53.9297L155.949 123.971L156.82 123.761L136.578 53.7203Z" fill="#A5A5A5"/>
<path d="M171.937 55.1953L155.394 125.784L156.28 125.956L172.823 55.368L171.937 55.1953Z" fill="#A5A5A5"/>
<path d="M135.217 55.1564C143.331 54.2757 148.898 45.8233 147.652 36.2774C146.405 26.7316 138.817 19.7071 130.703 20.5879C122.588 21.4686 117.021 29.9211 118.268 39.4669C119.515 49.0127 127.103 56.0372 135.217 55.1564Z" fill="#24285B"/>
<path d="M193.318 50.2087C197.947 41.5713 195.748 31.9182 188.406 28.6479C181.064 25.3777 171.36 29.7286 166.731 38.366C162.101 47.0034 164.3 56.6565 171.642 59.9267C178.984 63.197 188.689 58.8461 193.318 50.2087Z" fill="#24285B"/>
<path d="M177.866 34.6173C179.066 21.937 171.3 10.9703 160.52 10.1226C149.74 9.27494 140.028 18.8672 138.828 31.5475C137.629 44.2279 145.395 55.1945 156.175 56.0422C166.955 56.8899 176.666 47.2977 177.866 34.6173Z" fill="#7A02ED"/>
<path opacity="0.3" d="M159.82 24.0353C162.146 20.772 161.782 16.7945 159.007 15.1512C156.233 13.508 152.098 14.8212 149.773 18.0845C147.447 21.3478 147.811 25.3253 150.586 26.9686C153.361 28.6118 157.495 27.2986 159.82 24.0353Z" fill="white"/>
<path d="M92.3292 151.867L86.3283 172.679C84.0425 180.615 74.4759 184.773 66.2689 181.4L56.025 177.187L52.8029 183.098L61.5777 188.632C75.5117 197.422 94.7395 193.145 102.668 179.493L111.099 164.979L92.3242 151.858L92.3292 151.867Z" fill="#68E1FD"/>
<path opacity="0.08" d="M92.3292 151.867L86.3283 172.679C84.0425 180.615 74.4759 184.773 66.2689 181.4L56.025 177.187L52.8029 183.098L61.5777 188.632C75.5117 197.422 94.7395 193.145 102.668 179.493L111.099 164.979L92.3242 151.858L92.3292 151.867Z" fill="#000001"/>
<path d="M199.32 160.249C199.32 160.249 203.443 161.197 204.105 164.453C204.763 167.708 208.378 168.253 208.976 165.215C209.573 162.183 204.588 154.946 204.588 154.946L198.891 155.695L199.32 160.249Z" fill="#68E1FD"/>
<path d="M160.555 156.376L160.924 158.519C161.999 164.77 168.688 168.856 175.44 167.399L200.161 162.055L199.115 154.442L180.186 156.339C176.347 156.725 172.95 154.079 172.771 150.56L172.627 147.695L157.592 154.006L160.565 156.376H160.555Z" fill="#24285B"/>
<path d="M192.357 181.795C192.357 181.795 193.921 185.404 191.406 187.792C188.891 190.181 190.52 193.172 193.568 191.842C196.62 190.512 200.156 182.599 200.156 182.599L196.162 178.817L192.357 181.791V181.795Z" fill="#68E1FD"/>
<path d="M72.1253 129.181C72.1253 129.181 75.3125 133.971 78.5495 136.409C79.8643 137.399 81.8363 137.226 82.9021 136.014C84.2267 134.511 85.5365 132.128 84.172 129.372L82.4837 124.437C82.4837 124.437 81.3035 121.377 77.0406 121.413C72.7777 121.45 70.0238 126.357 72.1303 129.186L72.1253 129.181Z" fill="#F4A28C"/>
<path d="M83.5046 125.985L99.2663 131.664L95.855 140.731L83.2208 131.46L83.5046 125.985Z" fill="#F4A28C"/>
<path d="M74.3066 132.101L74.3265 134.761C74.3265 135.419 75.0835 135.851 75.7358 135.565L77.8922 134.625L74.3066 132.101Z" fill="#F4A28C"/>
<path d="M66.2738 124.201C66.2738 124.201 66.0149 129.844 71.5975 128.16C77.18 126.48 76.692 125.486 76.692 125.486C76.692 125.486 79.7547 131.837 84.172 129.367L85.3771 126.866C85.3771 126.866 84.157 117.822 79.5157 117.373C79.5157 117.373 68.7489 112.837 66.2738 124.201Z" fill="#24285B"/>
<path d="M80.7457 130.339C80.7457 130.339 79.2567 126.026 82.3045 126.166C85.3522 126.307 85.5664 131.505 80.7457 130.339Z" fill="#F4A28C"/>
<path d="M93.2854 139.396L99.2066 131.478C99.2066 131.478 104.69 127.401 115.909 126.525C127.129 125.649 162.926 121.213 162.926 121.213L171.277 146.102C171.277 146.102 152.478 171.044 117.996 170.976C100.681 170.945 87.9468 155.69 92.882 140.563C93.0065 140.177 93.1409 139.791 93.2854 139.401V139.396Z" fill="#68E1FD"/>
<path opacity="0.08" d="M119.928 144.386C119.928 144.386 130.66 161.524 165.958 144.386L166.701 151.169C166.701 151.169 145.839 171.957 120.685 170.922C95.5313 169.891 119.928 144.386 119.928 144.386Z" fill="#000001"/>
<path d="M99.2066 145.856C99.2663 161.633 101.836 196.287 121.99 214.624L128.962 208.508C128.962 208.508 120.058 194.875 120.645 172.352C121.099 155.036 123.165 139.115 112.682 136.313C105.905 134.502 99.1817 139.423 99.2066 145.861V145.856Z" fill="#68E1FD"/>
<path opacity="0.3" d="M99.2066 145.856C99.2663 161.633 101.836 196.287 121.99 214.624L128.962 208.508C128.962 208.508 120.058 194.875 120.645 172.352C121.099 155.036 123.165 139.115 112.682 136.313C105.905 134.502 99.1817 139.423 99.2066 145.861V145.856Z" fill="white"/>
<path d="M162.921 121.209C162.921 121.209 176.999 113.99 183.364 122.684C186.865 127.47 185.983 136.786 184.479 144.19C182.955 151.7 184.564 159.454 188.901 165.982L197.044 178.227L190.749 183.103L172.761 164.13C169.31 160.489 167.189 155.958 166.701 151.164L166.183 146.088L162.921 121.209Z" fill="#24285B"/>
<path d="M124.385 212.522C124.385 212.522 125.307 216.227 131.542 216.88C137.777 217.534 138.733 211.223 136.108 209.267C133.484 207.31 132.289 212.749 127.04 209.267L124.39 212.522H124.385Z" fill="#F4A28C"/>
<path d="M147.124 123.057L156.387 159.345L166.85 152.263L165.391 120.151C165.391 120.151 156.352 117.804 147.124 123.057Z" fill="#FFD200"/>
<path opacity="0.08" d="M153.882 149.543L166.491 144.386L166.85 152.267L156.387 159.35L153.882 149.543Z" fill="#000001"/>
<path opacity="0.08" d="M84.6849 132.532C84.6849 132.532 85.1132 130.507 84.5006 128.691C84.5006 128.691 87.5733 129.871 87.7725 134.797L84.6849 132.532Z" fill="#000001"/>
<path d="M53.5051 181.832C53.5051 181.832 48.9136 179.661 47.2204 176.261C45.5272 172.861 50.2731 168.693 56.035 177.187L53.5101 181.827L53.5051 181.832Z" fill="#F4A28C"/>
<path d="M50.7066 161.163L42.7164 166.384L52.1856 178.428L60.1758 173.207L50.7066 161.163Z" fill="#FFD200"/>
<path d="M60.7311 137.476H39.9695V150.369H48.7144C49.3618 152.076 50.3478 154.964 50.3478 154.964L52.046 150.369H60.7261V137.476H60.7311Z" fill="#E6E6E6"/>
<path opacity="0.38" d="M45.5471 144.885C46.3529 144.885 47.0062 144.29 47.0062 143.555C47.0062 142.82 46.3529 142.225 45.5471 142.225C44.7412 142.225 44.0879 142.82 44.0879 143.555C44.0879 144.29 44.7412 144.885 45.5471 144.885Z" fill="#A5A5A5"/>
<path opacity="0.38" d="M50.0092 144.885C50.815 144.885 51.4683 144.29 51.4683 143.555C51.4683 142.82 50.815 142.225 50.0092 142.225C49.2033 142.225 48.55 142.82 48.55 143.555C48.55 144.29 49.2033 144.885 50.0092 144.885Z" fill="#A5A5A5"/>
<path opacity="0.38" d="M54.6057 144.885C55.4116 144.885 56.0648 144.29 56.0648 143.555C56.0648 142.82 55.4116 142.225 54.6057 142.225C53.7998 142.225 53.1466 142.82 53.1466 143.555C53.1466 144.29 53.7998 144.885 54.6057 144.885Z" fill="#A5A5A5"/>
</svg>
