<svg width="221" height="221" viewBox="0 0 221 221" fill="none" xmlns="http://www.w3.org/2000/svg">
<g opacity="0.3">
<path d="M66.2646 40.9646C36.5092 48.3195 12.9948 71.5378 6.09958 101.399C0.967959 123.623 5.47194 146.532 39.9833 154.864C114.611 172.88 195.209 166.935 204.867 130.907C214.525 94.8798 196.606 33.0661 153.935 29.2428C129.639 27.0637 93.1647 34.317 66.2602 40.9646H66.2646Z" fill="#AD99FF"/>
</g>
<g opacity="0.03">
<path d="M105.877 206.41C152.699 206.41 190.657 202.891 190.657 198.551C190.657 194.211 152.699 190.692 105.877 190.692C59.0539 190.692 21.0966 194.211 21.0966 198.551C21.0966 202.891 59.0539 206.41 105.877 206.41Z" fill="#000001"/>
</g>
<path d="M104.175 115.221C97.4168 113.943 91.2376 111.464 85.3458 107.406C83.5071 109.333 81.6286 111.221 79.8517 113.201C78.9412 114.217 78.2959 114.107 77.3942 113.188C74.3842 110.129 71.3388 107.106 68.2492 104.131C67.3564 103.269 67.4846 102.712 68.3023 101.912C70.2161 100.047 72.0504 98.1021 73.814 96.2943C72.2361 93.2224 70.4813 90.2168 69.1288 87.0344C68.0326 84.4531 67.3343 81.6862 66.6448 78.9547C66.384 77.9292 65.9906 77.6773 65.0315 77.7038C62.711 77.7613 60.386 77.6905 58.0655 77.7436C56.9429 77.7701 56.5583 77.3281 56.5672 76.2275C56.6069 71.8871 56.6069 67.5422 56.5672 63.2018C56.5583 62.0747 57.0047 61.6901 58.1009 61.7122C60.4744 61.7653 62.848 61.7741 65.2171 61.6946C65.6591 61.6813 66.4017 61.2393 66.4768 60.8857C67.8116 54.5297 70.3089 48.6821 74.119 43.2145C72.1742 41.3007 70.278 39.3559 68.2846 37.5172C67.3917 36.6906 67.4183 36.147 68.2713 35.3204C71.3918 32.3016 74.477 29.2473 77.5268 26.1578C78.3666 25.3091 78.9589 25.318 79.7589 26.1887C81.5667 28.1556 83.4452 30.0606 85.306 32.0054C86.7381 31.1391 87.9226 30.3877 89.1381 29.6893C93.4211 27.2407 97.9737 25.4992 102.822 24.5754C103.848 24.3809 104.246 24.0185 104.197 22.9091C104.1 20.6416 104.206 18.3653 104.157 16.0934C104.135 14.9884 104.529 14.5818 105.66 14.595C110.054 14.6437 114.447 14.6481 118.836 14.595C120.06 14.5818 120.418 15.0636 120.396 16.2083C120.343 18.8294 120.379 21.4505 120.379 24.2527C127.11 25.5478 133.347 27.9876 139.168 32.0673C141.06 30.0916 142.943 28.1954 144.746 26.2285C145.608 25.287 146.231 25.3489 147.102 26.2329C150.108 29.2915 153.149 32.3237 156.243 35.2983C157.184 36.2 157.087 36.7658 156.198 37.61C154.298 39.4178 152.494 41.3272 150.536 43.3118C151.027 44.0897 151.562 44.9207 152.083 45.7649C154.877 50.2689 156.839 55.1176 157.874 60.3111C158.126 61.5708 158.638 61.8095 159.774 61.7697C161.944 61.6857 164.119 61.7874 166.285 61.7255C167.491 61.6901 168.004 62.0614 167.987 63.3565C167.925 67.5953 167.925 71.8385 167.982 76.0817C168 77.3193 167.602 77.8055 166.338 77.7701C163.969 77.7038 161.591 77.7038 159.222 77.7922C158.806 77.8055 158.126 78.3182 158.046 78.6983C156.711 85.0012 154.231 90.8003 150.488 96.1661C152.38 98.0756 154.205 100.012 156.145 101.828C157.1 102.721 157.188 103.309 156.194 104.255C153.091 107.216 150.055 110.248 147.036 113.302C146.214 114.133 145.626 114.204 144.804 113.311C142.996 111.34 141.113 109.439 139.195 107.437C133.378 111.428 127.177 113.961 120.374 115.216C120.374 117.948 120.335 120.569 120.392 123.186C120.418 124.383 120.087 124.918 118.774 124.901C114.434 124.839 110.089 124.83 105.749 124.901C104.418 124.923 104.118 124.37 104.14 123.186C104.197 120.569 104.157 117.948 104.157 115.234L104.175 115.221ZM112.396 42.693C97.2886 42.6576 85.0099 54.6756 84.9612 69.5401C84.9082 84.5902 97.0323 96.7363 112.158 96.7805C127.327 96.8291 139.562 84.7846 139.597 69.7743C139.628 54.8568 127.446 42.7239 112.396 42.6886V42.693Z" fill="#AD99FF"/>
<path d="M145.635 178.294C141.409 177.498 137.55 175.947 133.864 173.41C132.715 174.612 131.539 175.797 130.43 177.034C129.86 177.671 129.457 177.6 128.896 177.025C127.018 175.111 125.113 173.224 123.181 171.363C122.624 170.824 122.704 170.475 123.216 169.975C124.414 168.809 125.559 167.593 126.66 166.466C125.674 164.548 124.578 162.665 123.729 160.68C123.044 159.067 122.606 157.339 122.178 155.628C122.014 154.987 121.771 154.832 121.17 154.846C119.72 154.881 118.266 154.837 116.816 154.872C116.113 154.89 115.875 154.611 115.879 153.922C115.901 151.208 115.901 148.494 115.879 145.78C115.875 145.078 116.153 144.834 116.838 144.852C118.319 144.883 119.804 144.892 121.289 144.839C121.568 144.83 122.032 144.556 122.076 144.331C122.911 140.357 124.472 136.702 126.854 133.285C125.639 132.087 124.454 130.872 123.208 129.722C122.651 129.205 122.664 128.865 123.199 128.348C125.152 126.461 127.079 124.551 128.984 122.62C129.51 122.089 129.882 122.094 130.377 122.637C131.508 123.866 132.68 125.059 133.846 126.27C134.744 125.727 135.482 125.258 136.242 124.825C138.921 123.296 141.767 122.204 144.795 121.629C145.436 121.506 145.683 121.28 145.652 120.586C145.59 119.168 145.657 117.744 145.626 116.325C145.612 115.636 145.86 115.38 146.563 115.388C149.308 115.419 152.057 115.419 154.802 115.388C155.566 115.38 155.792 115.68 155.774 116.396C155.743 118.036 155.765 119.671 155.765 121.422C159.973 122.231 163.872 123.755 167.509 126.306C168.694 125.073 169.869 123.888 170.997 122.655C171.536 122.067 171.925 122.107 172.468 122.655C174.347 124.569 176.248 126.465 178.183 128.321C178.771 128.887 178.714 129.236 178.157 129.767C176.968 130.898 175.841 132.092 174.617 133.329C174.922 133.815 175.257 134.337 175.585 134.863C177.33 137.678 178.555 140.711 179.204 143.955C179.364 144.742 179.682 144.892 180.393 144.865C181.75 144.812 183.107 144.879 184.464 144.839C185.22 144.817 185.538 145.051 185.53 145.86C185.49 148.512 185.494 151.164 185.53 153.811C185.538 154.585 185.291 154.89 184.504 154.868C183.023 154.824 181.538 154.828 180.053 154.881C179.792 154.89 179.368 155.208 179.319 155.447C178.484 159.385 176.937 163.009 174.594 166.364C175.779 167.558 176.919 168.769 178.13 169.905C178.727 170.462 178.78 170.828 178.161 171.421C176.221 173.273 174.325 175.169 172.437 177.074C171.925 177.591 171.553 177.64 171.045 177.078C169.914 175.845 168.738 174.656 167.54 173.41C163.902 175.903 160.026 177.485 155.778 178.272C155.778 179.982 155.752 181.618 155.792 183.253C155.809 184.004 155.602 184.336 154.78 184.323C152.066 184.283 149.352 184.279 146.638 184.323C145.807 184.336 145.617 183.991 145.635 183.253C145.67 181.618 145.643 179.978 145.643 178.281L145.635 178.294ZM150.775 132.958C141.334 132.936 133.656 140.45 133.625 149.741C133.595 159.151 141.17 166.74 150.625 166.771C160.106 166.802 167.757 159.27 167.774 149.891C167.796 140.565 160.181 132.98 150.771 132.958H150.775Z" fill="#7A02ED"/>
<g opacity="0.58">
<path d="M118.703 192.575C118.703 192.575 112.719 190.966 111.393 185.41C111.393 185.41 120.648 183.501 120.953 193.057L118.703 192.575Z" fill="#68E1FD"/>
</g>
<g opacity="0.73">
<path d="M119.437 191.978C119.437 191.978 115.234 185.393 118.885 179.205C118.885 179.205 125.948 183.647 122.854 191.978H119.442H119.437Z" fill="#68E1FD"/>
</g>
<path d="M120.511 191.978C120.511 191.978 122.69 184.995 129.356 183.646C129.356 183.646 130.624 188.168 125.073 191.978H120.516H120.511Z" fill="#68E1FD"/>
<path d="M116.175 191.841L117.422 200.129H125.055L126.147 191.841H116.175Z" fill="#24285B"/>
<g opacity="0.58">
<path d="M118.703 192.575C118.703 192.575 112.719 190.966 111.393 185.41C111.393 185.41 120.648 183.501 120.953 193.057L118.703 192.575Z" fill="#68E1FD"/>
</g>
<g opacity="0.73">
<path d="M119.437 191.978C119.437 191.978 115.234 185.393 118.885 179.205C118.885 179.205 125.948 183.647 122.854 191.978H119.442H119.437Z" fill="#68E1FD"/>
</g>
<path d="M120.511 191.978C120.511 191.978 122.69 184.995 129.356 183.646C129.356 183.646 130.624 188.168 125.073 191.978H120.516H120.511Z" fill="#68E1FD"/>
<path d="M116.175 191.841L117.422 200.129H125.055L126.147 191.841H116.175Z" fill="#24285B"/>
<path d="M93.1604 91.3125H61.6812V94.9502H93.1604V91.3125Z" fill="#FFD200"/>
<path d="M93.1604 114.704H61.6812V118.341H93.1604V114.704Z" fill="#FFD200"/>
<path d="M93.1604 139.093H61.6812V142.73H93.1604V139.093Z" fill="#FFD200"/>
<path d="M93.1604 162.483H61.6812V166.121H93.1604V162.483Z" fill="#FFD200"/>
<path d="M93.1604 182.157H61.6812V185.795H93.1604V182.157Z" fill="#FFD200"/>
<path d="M63.5022 31.8682H59.8645V198.701H63.5022V31.8682Z" fill="#FFD200"/>
<path d="M94.9814 31.8682H91.3438V198.701H94.9814V31.8682Z" fill="#FFD200"/>
<path d="M36.8496 90.0663L38.6573 95.4852L34.3655 98.2123L32.8229 88.8154L36.8496 90.0663Z" fill="#F4A28C"/>
<path d="M31.3511 83.578C32.2749 81.3238 35.2716 80.8641 36.9336 82.6409C38.759 84.5902 40.9602 87.6886 38.4717 89.377C34.6617 91.9583 31.161 87.1361 31.161 87.1361C31.161 87.1361 30.6483 85.2885 31.3511 83.578Z" fill="#F4A28C"/>
<path d="M34.1357 86.9014C34.1357 86.9014 33.1589 86.0837 32.7169 87.2462C32.2749 88.4042 33.9987 88.9656 34.5158 88.3821C35.033 87.7943 34.1357 86.9059 34.1357 86.9059V86.9014Z" fill="#F4A28C"/>
<path d="M33.1058 90.5395L30.2019 87.5339C29.5919 86.9018 29.2781 86.0532 29.3179 85.178C29.3842 83.7106 29.7422 82.2608 30.8384 81.1956C31.6472 80.4088 32.7611 79.8475 33.8793 79.9845C34.7235 80.0862 35.4705 80.5635 36.1866 81.032C36.4385 81.1956 36.6949 81.3635 36.8761 81.6022C37.5479 82.4774 36.3059 82.7956 35.7534 83.273C35.1258 83.8166 34.613 84.5062 34.5158 85.3548C34.2815 87.4499 36.2661 89.1339 33.1014 90.5395H33.1058Z" fill="#24285B"/>
<path d="M38.6573 95.4853C38.6573 95.4853 60.196 86.632 65.9995 103.264C71.8029 119.897 62.8878 144.415 62.8878 144.415H38.6573C38.6573 144.415 17.2027 112.1 34.3655 98.2124L38.6573 95.4897V95.4853Z" fill="#68E1FD"/>
<path d="M38.6573 144.415L42.8298 194.754H47.8333L51.4577 155.672L62.8878 144.415H38.6573Z" fill="#24285B"/>
<path d="M43.9437 194.754L44.1514 196.464C44.2973 197.658 45.3094 198.551 46.5117 198.551H50.167C51.3781 198.551 51.9129 197.052 50.998 196.261C50.335 195.691 49.3405 195.134 47.8377 194.754H43.9481H43.9437Z" fill="#68E1FD"/>
<path d="M50.4809 104.104C47.767 96.621 57.3761 90.9281 62.6182 96.9172C64.3287 98.8708 65.8978 101.558 67.1089 105.227C72.6207 121.943 73.9201 131.601 91.9361 131.972V137.36C91.9361 137.36 67.794 141.051 56.4656 117.846C53.6456 112.073 51.7494 107.587 50.4853 104.104H50.4809Z" fill="#68E1FD"/>
<g opacity="0.46">
<path d="M50.4809 104.104C47.767 96.621 57.3761 90.9281 62.6182 96.9172C64.3287 98.8708 65.8978 101.558 67.1089 105.227C72.6207 121.943 73.9201 131.601 91.9361 131.972V137.36C91.9361 137.36 67.794 141.051 56.4656 117.846C53.6456 112.073 51.7494 107.587 50.4853 104.104H50.4809Z" fill="white"/>
</g>
<path d="M91.936 133.272C91.936 133.272 96.5019 132.242 97.492 135.212C98.4821 138.182 91.936 137.356 91.936 137.356V133.272Z" fill="#F4A28C"/>
<path d="M62.8878 144.415C62.8878 144.415 77.0009 142.457 81.4607 150.236C85.916 158.011 74.5257 179.209 74.5257 179.209L69.4515 177.591C69.4515 177.591 78.2827 157.551 65.6989 155.049C64.258 154.762 62.7685 154.842 61.332 155.164L47.8377 158.161L50.0123 144.914L62.8878 144.419V144.415Z" fill="#24285B"/>
<path d="M70.972 178.073L70.667 179.173C70.4504 179.96 70.6626 180.8 71.2239 181.392L71.5819 181.768C72.0195 182.228 72.6251 182.484 73.2571 182.484H76.2804C77.16 182.484 77.602 181.405 76.9655 180.804C76.3776 180.247 75.5732 179.655 74.5257 179.204L70.972 178.073Z" fill="#68E1FD"/>
<path d="M93.1604 44.5356H61.6812V48.1733H93.1604V44.5356Z" fill="#FFD200"/>
<path d="M93.1604 67.9219H61.6812V71.5595H93.1604V67.9219Z" fill="#FFD200"/>
<path d="M29.3135 87.1755L38.3789 82.1632L36.8761 81.6019C36.8761 81.6019 34.9446 77.6106 32.1113 78.1676C29.2781 78.7245 26.0029 81.8804 29.3135 87.1755Z" fill="#68E1FD"/>
<path d="M216.673 90.0571H173.772V117.7H216.673V90.0571Z" fill="#E6E6E6"/>
<path d="M216.673 79.5952H173.772V90.0574H216.673V79.5952Z" fill="#A5A5A5"/>
<path d="M209.627 99.8965H181.185C180.167 99.8965 179.341 100.722 179.341 101.74V103.627C179.341 104.645 180.167 105.47 181.185 105.47H209.627C210.645 105.47 211.47 104.645 211.47 103.627V101.74C211.47 100.722 210.645 99.8965 209.627 99.8965Z" fill="#A5A5A5"/>
<path d="M187.823 107.512C190.489 107.512 192.65 105.351 192.65 102.686C192.65 100.02 190.489 97.8589 187.823 97.8589C185.158 97.8589 182.997 100.02 182.997 102.686C182.997 105.351 185.158 107.512 187.823 107.512Z" fill="#FFD200"/>
</svg>
